<?xml version="1.0" encoding="utf-8"?>
<!-- Generator: Adobe Illustrator 19.0.0, SVG Export Plug-In . SVG Version: 6.00 Build 0)  -->
<svg version="1.1" id="Layer_1" xmlns="http://www.w3.org/2000/svg" xmlns:xlink="http://www.w3.org/1999/xlink" x="0px" y="0px"
	 viewBox="0 0 1600 800" style="enable-background:new 0 0 1600 800;" xml:space="preserve">
<style type="text/css">
	.st0{fill:#D4D4D4;}
	.st1{fill:#333333;}
	.st2{fill:#8B7E7F;}
	.st3{fill:#C2B8B9;}
</style>
<rect id="XMLID_1_" class="st0" width="1600" height="800"/>
<g id="XMLID_2_">
	<path id="XMLID_16_" class="st1" d="M971.2,577c-31.2,0-56.6-25.4-56.6-56.6v-36.5c0-3.2,2.6-5.8,5.8-5.8c3.2,0,5.8,2.6,5.8,5.8
		v36.5c0,24.8,20.2,45,45,45c3.2,0,5.8,2.6,5.8,5.8C977,574.4,974.4,577,971.2,577z"/>
	<circle id="XMLID_15_" class="st2" cx="797.1" cy="397.1" r="153.8"/>
	<circle id="XMLID_14_" class="st1" cx="797.1" cy="397.1" r="99.7"/>
	<path id="XMLID_7_" class="st3" d="M797.1,223c-96.2,0-174.1,78-174.1,174.1s78,174.1,174.1,174.1s174.1-78,174.1-174.1
		S893.3,223,797.1,223z M659.6,352.4c7.7-23.8,33.3-36.8,57-29.1c23.8,7.7,36.8,33.3,29.1,57s-33.3,36.8-57,29.1
		C664.9,401.8,651.9,376.2,659.6,352.4z M775.4,504c-14.7,20.2-43,24.7-63.2,10c-20.2-14.7-24.7-43-10-63.2
		c14.7-20.2,43-24.7,63.2-10C785.6,455.5,790.1,483.8,775.4,504z M751.8,297.8c0-25,20.3-45.3,45.3-45.3s45.3,20.3,45.3,45.3
		s-20.3,45.3-45.3,45.3S751.8,322.9,751.8,297.8z M882,514c-20.2,14.7-48.5,10.2-63.2-10s-10.2-48.5,10-63.2
		c20.2-14.7,48.5-10.2,63.2,10C906.8,471,902.3,499.3,882,514z M905.5,409.5c-23.8,7.7-49.3-5.3-57-29.1s5.3-49.3,29.1-57
		c23.8-7.7,49.3,5.3,57,29.1C942.3,376.2,929.3,401.8,905.5,409.5z"/>
	<circle id="XMLID_6_" class="st2" cx="797.1" cy="397.1" r="24.4"/>
</g>
</svg>
