<?xml version="1.0" encoding="utf-8"?>
<!-- Generator: Adobe Illustrator 19.0.0, SVG Export Plug-In . SVG Version: 6.00 Build 0)  -->
<svg version="1.1" id="Layer_1" xmlns="http://www.w3.org/2000/svg" xmlns:xlink="http://www.w3.org/1999/xlink" x="0px" y="0px"
	 viewBox="0 0 600 800" style="enable-background:new 0 0 600 800;" xml:space="preserve">
<style type="text/css">
	.st0{fill:#D4D4D4;}
	.st1{fill:#333333;}
	.st2{fill:#8B7E7F;}
	.st3{fill:#C2B8B9;}
</style>
<rect id="XMLID_1_" class="st0" width="600" height="800"/>
<g id="XMLID_2_">
	<path id="XMLID_16_" class="st1" d="M411.3,515c-20.3,0-36.8-16.5-36.8-36.8v-23.8c0-2.1,1.7-3.8,3.8-3.8c2.1,0,3.8,1.7,3.8,3.8
		v23.8c0,16.1,13.1,29.2,29.2,29.2c2.1,0,3.8,1.7,3.8,3.8C415,513.4,413.4,515,411.3,515z"/>
	<circle id="XMLID_15_" class="st2" cx="298.1" cy="398.1" r="100"/>
	<circle id="XMLID_14_" class="st1" cx="298.1" cy="398.1" r="64.8"/>
	<path id="XMLID_7_" class="st3" d="M298.1,285C235.6,285,185,335.6,185,398.1s50.7,113.2,113.2,113.2s113.2-50.7,113.2-113.2
		S360.6,285,298.1,285z M208.8,369.1c5-15.5,21.6-23.9,37.1-18.9c15.5,5,23.9,21.6,18.9,37.1s-21.6,23.9-37.1,18.9
		C212.2,401.1,203.8,384.5,208.8,369.1z M284,467.6c-9.6,13.1-28,16.1-41.1,6.5c-13.1-9.6-16.1-28-6.5-41.1
		c9.6-13.1,28-16.1,41.1-6.5C290.6,436,293.6,454.4,284,467.6z M268.7,333.6c0-16.2,13.2-29.4,29.4-29.4s29.4,13.2,29.4,29.4
		c0,16.2-13.2,29.4-29.4,29.4C281.9,363,268.7,349.9,268.7,333.6z M353.3,474.1c-13.1,9.6-31.5,6.6-41.1-6.5s-6.6-31.5,6.5-41.1
		c13.1-9.6,31.5-6.6,41.1,6.5C369.4,446.1,366.5,464.6,353.3,474.1z M368.6,406.2c-15.5,5-32.1-3.4-37.1-18.9s3.4-32.1,18.9-37.1
		c15.5-5,32.1,3.4,37.1,18.9S384,401.1,368.6,406.2z"/>
	<circle id="XMLID_6_" class="st2" cx="298.1" cy="398.1" r="15.8"/>
</g>
</svg>
